<svg id="zoom-plus" xmlns="http://www.w3.org/2000/svg" viewBox="0 0 37.01 33"><defs><style>.cls-1{fill:#fff;}</style></defs><title>backet</title><path class="cls-1" d="M461.07,774.14h2.61a0.72,0.72,0,0,1,.68.49c0.19,0.51,7.16,19.47,7.16,19.47a1.17,1.17,0,0,0,1.45.78l20.13-2.44a1.18,1.18,0,0,0,1-.87l2.9-13.24A1.06,1.06,0,0,0,495.9,777H467.84a0.55,0.55,0,0,1-.48-0.39L466,772.88a1.25,1.25,0,0,0-1-.88h-4.16a1,1,0,0,0-.87,1.07A1.14,1.14,0,0,0,461.07,774.14Zm33.39,5.74s-0.85,3.78-1,4.29a0.51,0.51,0,0,1-.48.48h-6.1a0.52,0.52,0,0,1-.48-0.48v-4.38c0-.71.48-0.68,0.48-0.68H494C494.62,779.11,494.45,779.88,494.45,779.88Zm-7.55,5.36h5.81s0.51,0,.39.78l-0.87,4a1,1,0,0,1-.77.49l-4.35.48a0.58,0.58,0,0,1-.68-0.58v-4.58a0.51,0.51,0,0,1,.44-0.58h0Zm-1.74,5.94c-0.65.07-5.81,0.78-5.81,0.78s-0.58.07-.58-0.78v-5.45s0-.49.68-0.49h5.9a0.52,0.52,0,0,1,.48.56v4.79A0.68,0.68,0,0,1,485.16,791.18Zm0.1-6.53h-5.9a0.59,0.59,0,0,1-.58-0.58v-4.48a0.58,0.58,0,0,1,.65-0.48h5.92a0.56,0.56,0,0,1,.49.61v4.35a0.57,0.57,0,0,1-.56.58h0Zm-7.55,7.5-4,.49a0.8,0.8,0,0,1-.68-0.59c-0.17-.56-2.23-6.13-2.23-6.13s-0.15-.68.77-0.68h6a0.67,0.67,0,0,1,.59.74v5.59a0.62,0.62,0,0,1-.49.58h0Zm-0.1-7.5h-6.77a0.6,0.6,0,0,1-.68-0.48l-1.64-4.38s-0.15-.68.77-0.68h8.32s0.58-.05.58,0.77v4.29a0.53,0.53,0,0,1-.57.48h0Zm-6.1,13.72a3.31,3.31,0,1,1-3.3,3.33h0a3.31,3.31,0,0,1,3.3-3.32h0Zm19.75,0a3.31,3.31,0,1,1-3.3,3.33h0a3.31,3.31,0,0,1,3.3-3.32h0Z" transform="translate(-460 -772)"/></svg>