<?xml version="1.0" encoding="utf-8"?>
<!-- Generator: Adobe Illustrator 19.2.1, SVG Export Plug-In . SVG Version: 6.00 Build 0)  -->
<svg version="1.1" id="zoom-plus" xmlns="http://www.w3.org/2000/svg" xmlns:xlink="http://www.w3.org/1999/xlink" x="0px" y="0px"
	 viewBox="0 0 54.5 22" style="enable-background:new 0 0 54.5 22;" xml:space="preserve">
<style type="text/css">
	.st0{fill:#FFC100;}
	.st1{fill:#CCD4DD;}
</style>
<title>compare</title>
<path class="st0" d="M34.2,6.6l-1.4-0.1c0,0-5.3,10.4-5.3,10.6c0,4.1,2.9,4.9,6,4.9c3.1,0,5.9-1.4,5.9-5
	C39.4,16.9,34.2,6.6,34.2,6.6z M29.1,16.6L33.6,8l4.4,8.6H29.1z M49.3,6.6l-1.4-0.1c0,0-5.3,10.4-5.3,10.6c0,4.2,2.9,4.9,6,4.9
	s5.9-1.4,5.9-5C54.6,16.9,49.4,6.6,49.3,6.6L49.3,6.6z M44.2,16.6L48.6,8l4.4,8.6H44.2L44.2,16.6z M41.1,0c-1.7,0.1-3.1,1.4-3.3,3.1
	c-0.2,1.8,1.2,3.5,3,3.7c1.8,0.1,3.4-1.3,3.5-3.1C44.3,1.8,42.9,0.2,41.1,0z M43.2,3.9c-0.1,1.3-1.1,2.2-2.4,2.2
	c-1.3-0.1-2.2-1.3-2.1-2.6c0.1-1.3,1.1-2.2,2.4-2.2c1.2,0.1,2.2,1.1,2.1,2.4l0,0V3.9L43.2,3.9z"/>
<path class="st0" d="M31.2,3.1H38v2.1h-6.8C31.2,5.2,31.2,3.1,31.2,3.1z M44,3.1h6.8v2.1H44V3.1z"/>
<path class="st1" d="M6.9,6.6L5.5,6.5c0,0-5.3,10.4-5.3,10.6c0,4.1,2.9,4.9,6,4.9s5.9-1.4,5.9-5C12.1,16.9,6.9,6.6,6.9,6.6z
	 M1.8,16.6L6.2,8l4.4,8.6H1.8z M22,6.6l-1.4-0.1c0,0-5.3,10.4-5.3,10.6c0,4.2,2.9,4.9,6,4.9s5.9-1.4,5.9-5C27.2,16.9,22,6.6,22,6.6
	L22,6.6z M16.9,16.6L21.3,8l4.4,8.6H16.9L16.9,16.6z M13.7,0c-1.7,0.1-3.1,1.4-3.3,3.1c-0.2,1.8,1.2,3.5,3,3.7
	c1.8,0.1,3.4-1.3,3.5-3.1C17,1.8,15.6,0.2,13.7,0z M15.8,3.9c-0.1,1.3-1.1,2.2-2.4,2.2c-1.3-0.1-2.2-1.3-2.1-2.6
	c0.1-1.3,1.1-2.2,2.4-2.2c1.2,0.1,2.2,1.1,2.1,2.4l0,0L15.8,3.9L15.8,3.9z"/>
<path class="st1" d="M3.8,3.1h6.8v2.1H3.8V3.1z M16.6,3.1h6.8v2.1h-6.8C16.6,5.2,16.6,3.1,16.6,3.1z"/>
</svg>
