<svg id="zoom-plus" xmlns="http://www.w3.org/2000/svg" viewBox="0 0 70 14"><defs><style>.cls-1{fill:#edece6;stroke:#e0dfd7;stroke-linejoin:round;}</style></defs><title>stars</title><path id="fqFigure_5" data-name="fqFigure 5" class="cls-1" d="M324.5,316.59l4.54,0.88-3.16,3.4,0.57,4.63-4.19-2-4.19,2,0.57-4.63-3.16-3.4,4.54-.88,2.23-4.09Z" transform="translate(-314.99 -312)"/><path id="fqFigure_4" data-name="fqFigure 4" class="cls-1" d="M338.11,316.59l4.54,0.88-3.16,3.4,0.57,4.63-4.19-2-4.19,2,0.57-4.63-3.16-3.4,4.54-.88,2.23-4.09Z" transform="translate(-314.99 -312)"/><path id="fqFigure_3" data-name="fqFigure 3" class="cls-1" d="M352.73,316.59l4.54,0.88-3.16,3.4,0.57,4.63-4.19-2-4.19,2,0.57-4.63-3.16-3.4,4.54-.88,2.23-4.09Z" transform="translate(-314.99 -312)"/><path id="fqFigure_2" data-name="fqFigure 2" class="cls-1" d="M366.34,316.59l4.54,0.88-3.16,3.4,0.57,4.63-4.19-2-4.19,2,0.57-4.63-3.16-3.4,4.54-.88,2.23-4.09Z" transform="translate(-314.99 -312)"/><path id="fqFigure_1" data-name="fqFigure 1" class="cls-1" d="M380,316.59l4.54,0.88-3.16,3.4,0.57,4.63-4.19-2-4.18,2,0.57-4.63-3.16-3.4,4.54-.88,2.23-4.09Z" transform="translate(-314.99 -312)"/></svg>