<svg id="zoom-plus" xmlns="http://www.w3.org/2000/svg" viewBox="0 0 115 31.99"><defs><style>.cls-1{fill:#ffc100;}.cls-2{fill:#adb8c8;}.cls-3{fill:#fff;}</style></defs><title>wish</title><path id="hrheader-wishlist" class="cls-1" d="M689.86,719a9.84,9.84,0,0,0-7.65,3.63l-0.71.92-0.71-.92a9.84,9.84,0,0,0-7.65-3.63c-5,0-10.14,4-10.14,11.71,0,6.65,5.67,12.89,18.37,20.24l0.13,0,0.13,0c12.7-7.35,18.37-13.59,18.37-20.24C700,723,694.9,719,689.87,719h0Zm0.61,23.39a86.6,86.6,0,0,1-8.48,6l-0.48.3-0.48-.3a87.16,87.16,0,0,1-8.5-6c-7.59-6.11-7.4-11.19-7.33-11.88,0-9.33,7.61-9.44,7.94-9.44h0a8.08,8.08,0,0,1,7.5,5.56,0.86,0.86,0,0,0,.84.45h0.11a0.8,0.8,0,0,0,.74-0.46c2.08-5.28,6.55-5.55,7.43-5.55h0.14c0.27,0,7.88.1,7.91,9.44,0.07,0.7.26,5.77-7.35,11.89h0Z" transform="translate(-624 -719.01)"/><path class="cls-2" d="M650.86,719a9.84,9.84,0,0,0-7.66,3.63l-0.71.92-0.71-.92a9.84,9.84,0,0,0-7.66-3.63c-5,0-10.14,4-10.14,11.71,0,6.65,5.67,12.89,18.37,20.24l0.13,0,0.13,0c12.7-7.35,18.37-13.59,18.37-20.24C661,723,655.9,719,650.86,719Zm0.6,23.39a86.67,86.67,0,0,1-8.48,6l-0.49.3-0.48-.3a87.27,87.27,0,0,1-8.5-6c-7.59-6.11-7.4-11.19-7.33-11.88,0-9.33,7.62-9.44,7.94-9.44h0a8.09,8.09,0,0,1,7.5,5.56,0.86,0.86,0,0,0,.84.45h0.11a0.8,0.8,0,0,0,.74-0.46c2.08-5.28,6.55-5.55,7.43-5.55h0.14c0.27,0,7.88.1,7.91,9.44C658.89,731.21,659.08,736.28,651.47,742.4Z" transform="translate(-624 -719.01)"/><path class="cls-3" d="M728.86,719a9.84,9.84,0,0,0-7.66,3.63l-0.71.92-0.71-.92a9.84,9.84,0,0,0-7.66-3.63c-5,0-10.14,4-10.14,11.71,0,6.65,5.67,12.89,18.37,20.24l0.13,0,0.13,0c12.7-7.35,18.37-13.59,18.37-20.24C739,723,733.9,719,728.86,719Zm0.6,23.39a86.67,86.67,0,0,1-8.48,6l-0.49.3-0.48-.3a87.27,87.27,0,0,1-8.5-6c-7.59-6.11-7.4-11.19-7.33-11.88,0-9.33,7.62-9.44,7.94-9.44h0a8.09,8.09,0,0,1,7.5,5.56,0.86,0.86,0,0,0,.84.45h0.11a0.8,0.8,0,0,0,.74-0.46c2.08-5.28,6.55-5.55,7.43-5.55h0.14c0.27,0,7.88.1,7.91,9.44C736.89,731.21,737.08,736.28,729.47,742.4Z" transform="translate(-624 -719.01)"/></svg>